<mxfile host="app.diagrams.net" modified="2023-03-13T13:19:58.607Z" agent="5.0 (Windows NT 10.0; Win64; x64) AppleWebKit/537.36 (KHTML, like Gecko) Chrome/111.0.0.0 Safari/537.36" etag="jJI9AyBFjZQ0N2F3Ijvf" version="20.8.23" type="github">
  <diagram name="Страница 1" id="8B0zSTOTU_52QHjg92Sk">
    <mxGraphModel dx="2603" dy="764" grid="1" gridSize="10" guides="1" tooltips="1" connect="1" arrows="1" fold="1" page="1" pageScale="1" pageWidth="1169" pageHeight="827" math="0" shadow="0">
      <root>
        <mxCell id="0" />
        <mxCell id="1" parent="0" />
        <mxCell id="Zy5Wt5ni4Z5-jma8tLIB-3" value="&lt;u&gt;Уровень 1: Схема системного контекста&lt;/u&gt;" style="text;strokeColor=none;fillColor=none;html=1;fontSize=24;fontStyle=1;verticalAlign=middle;align=center;" vertex="1" parent="1">
          <mxGeometry x="-960" y="10" width="100" height="40" as="geometry" />
        </mxCell>
        <mxCell id="Zy5Wt5ni4Z5-jma8tLIB-47" style="edgeStyle=orthogonalEdgeStyle;rounded=0;orthogonalLoop=1;jettySize=auto;html=1;exitX=0;exitY=0.75;exitDx=0;exitDy=0;exitPerimeter=0;strokeColor=default;fontSize=14;entryX=0.421;entryY=-0.033;entryDx=0;entryDy=0;entryPerimeter=0;endArrow=classic;endFill=1;startArrow=classic;startFill=1;" edge="1" parent="1" source="Zy5Wt5ni4Z5-jma8tLIB-4" target="Zy5Wt5ni4Z5-jma8tLIB-9">
          <mxGeometry relative="1" as="geometry">
            <mxPoint x="-670" y="390" as="targetPoint" />
          </mxGeometry>
        </mxCell>
        <mxCell id="Zy5Wt5ni4Z5-jma8tLIB-48" value="Обработка данных&lt;br&gt;&amp;nbsp;пользователем" style="edgeLabel;html=1;align=center;verticalAlign=middle;resizable=0;points=[];fontSize=14;rotation=0;" vertex="1" connectable="0" parent="Zy5Wt5ni4Z5-jma8tLIB-47">
          <mxGeometry x="0.2" relative="1" as="geometry">
            <mxPoint x="69" y="-20" as="offset" />
          </mxGeometry>
        </mxCell>
        <object placeholders="1" c4Name="Пользователь" c4Type="Человек" c4Description="- Сотрудник ОПА&#xa;- Сотруник Сервиса&#xa;- Сотрудник ОЗЧ" label="&lt;font style=&quot;font-size: 16px&quot;&gt;&lt;b&gt;%c4Name%&lt;/b&gt;&lt;/font&gt;&lt;div&gt;[%c4Type%]&lt;/div&gt;&lt;br&gt;&lt;div&gt;&lt;font style=&quot;font-size: 11px&quot;&gt;&lt;font color=&quot;#cccccc&quot;&gt;%c4Description%&lt;/font&gt;&lt;/div&gt;" id="Zy5Wt5ni4Z5-jma8tLIB-4">
          <mxCell style="html=1;fontSize=11;dashed=0;whiteSpace=wrap;fillColor=#083F75;strokeColor=#06315C;fontColor=#ffffff;shape=mxgraph.c4.person2;align=center;metaEdit=1;points=[[0.5,0,0],[1,0.5,0],[1,0.75,0],[0.75,1,0],[0.5,1,0],[0.25,1,0],[0,0.75,0],[0,0.5,0]];resizable=0;" vertex="1" parent="1">
            <mxGeometry x="-540" y="120" width="200" height="180" as="geometry" />
          </mxCell>
        </object>
        <mxCell id="Zy5Wt5ni4Z5-jma8tLIB-5" value="&lt;b&gt;&lt;font style=&quot;font-size: 14px;&quot;&gt;Сокращения и абриваатуры:&lt;br&gt;&amp;nbsp;&lt;/font&gt;&lt;/b&gt;" style="text;html=1;align=center;verticalAlign=middle;resizable=0;points=[];autosize=1;strokeColor=none;fillColor=none;" vertex="1" parent="1">
          <mxGeometry x="-1160" y="50" width="220" height="50" as="geometry" />
        </mxCell>
        <mxCell id="Zy5Wt5ni4Z5-jma8tLIB-6" value="&lt;b&gt;ОПА&lt;/b&gt; - Отдел продаж автомобилей" style="text;html=1;align=center;verticalAlign=middle;resizable=0;points=[];autosize=1;strokeColor=none;fillColor=none;fontSize=14;" vertex="1" parent="1">
          <mxGeometry x="-1160" y="140" width="250" height="30" as="geometry" />
        </mxCell>
        <mxCell id="Zy5Wt5ni4Z5-jma8tLIB-7" value="&lt;b style=&quot;border-color: var(--border-color);&quot;&gt;ОЗЧ&amp;nbsp;&lt;/b&gt;- Отдел запасных частей" style="text;html=1;align=center;verticalAlign=middle;resizable=0;points=[];autosize=1;strokeColor=none;fillColor=none;fontSize=14;" vertex="1" parent="1">
          <mxGeometry x="-1160" y="100" width="220" height="30" as="geometry" />
        </mxCell>
        <mxCell id="Zy5Wt5ni4Z5-jma8tLIB-40" style="edgeStyle=orthogonalEdgeStyle;rounded=0;orthogonalLoop=1;jettySize=auto;html=1;exitX=1;exitY=0.5;exitDx=0;exitDy=0;exitPerimeter=0;entryX=0.671;entryY=1.008;entryDx=0;entryDy=0;entryPerimeter=0;strokeColor=default;fontSize=14;" edge="1" parent="1" source="Zy5Wt5ni4Z5-jma8tLIB-8" target="Zy5Wt5ni4Z5-jma8tLIB-10">
          <mxGeometry relative="1" as="geometry" />
        </mxCell>
        <mxCell id="Zy5Wt5ni4Z5-jma8tLIB-41" value="Передача данных&amp;nbsp;" style="edgeLabel;html=1;align=center;verticalAlign=middle;resizable=0;points=[];fontSize=14;rotation=270;" vertex="1" connectable="0" parent="Zy5Wt5ni4Z5-jma8tLIB-40">
          <mxGeometry x="0.1078" relative="1" as="geometry">
            <mxPoint y="-26" as="offset" />
          </mxGeometry>
        </mxCell>
        <object placeholders="1" c4Name="Портал дистрибьютора" c4Type="Информационная система дистрибьютора" c4Description="Портал дистрибьютора" label="&lt;font style=&quot;font-size: 16px&quot;&gt;&lt;b&gt;%c4Name%&lt;/b&gt;&lt;/font&gt;&lt;div&gt;[%c4Type%]&lt;/div&gt;&lt;br&gt;&lt;div&gt;&lt;font style=&quot;font-size: 11px&quot;&gt;&lt;font color=&quot;#cccccc&quot;&gt;%c4Description%&lt;/font&gt;&lt;/div&gt;" id="Zy5Wt5ni4Z5-jma8tLIB-8">
          <mxCell style="rounded=1;whiteSpace=wrap;html=1;labelBackgroundColor=none;fillColor=#8C8496;fontColor=#ffffff;align=center;arcSize=10;strokeColor=#736782;metaEdit=1;resizable=0;points=[[0.25,0,0],[0.5,0,0],[0.75,0,0],[1,0.25,0],[1,0.5,0],[1,0.75,0],[0.75,1,0],[0.5,1,0],[0.25,1,0],[0,0.75,0],[0,0.5,0],[0,0.25,0]];fontSize=14;" vertex="1" parent="1">
            <mxGeometry x="-510" y="900" width="240" height="120" as="geometry" />
          </mxCell>
        </object>
        <mxCell id="Zy5Wt5ni4Z5-jma8tLIB-52" style="edgeStyle=orthogonalEdgeStyle;rounded=0;orthogonalLoop=1;jettySize=auto;html=1;exitX=0.5;exitY=1;exitDx=0;exitDy=0;exitPerimeter=0;entryX=0;entryY=0.458;entryDx=0;entryDy=0;entryPerimeter=0;strokeColor=default;fontSize=14;startArrow=none;startFill=0;endArrow=classic;endFill=1;" edge="1" parent="1" source="Zy5Wt5ni4Z5-jma8tLIB-9" target="Zy5Wt5ni4Z5-jma8tLIB-51">
          <mxGeometry relative="1" as="geometry" />
        </mxCell>
        <mxCell id="Zy5Wt5ni4Z5-jma8tLIB-54" style="edgeStyle=orthogonalEdgeStyle;rounded=0;orthogonalLoop=1;jettySize=auto;html=1;exitX=1;exitY=0.75;exitDx=0;exitDy=0;exitPerimeter=0;entryX=0.25;entryY=0;entryDx=0;entryDy=0;entryPerimeter=0;strokeColor=default;fontSize=14;startArrow=none;startFill=0;endArrow=classic;endFill=1;" edge="1" parent="1" source="Zy5Wt5ni4Z5-jma8tLIB-9" target="Zy5Wt5ni4Z5-jma8tLIB-8">
          <mxGeometry relative="1" as="geometry" />
        </mxCell>
        <mxCell id="Zy5Wt5ni4Z5-jma8tLIB-57" style="edgeStyle=orthogonalEdgeStyle;rounded=0;orthogonalLoop=1;jettySize=auto;html=1;exitX=0;exitY=0.5;exitDx=0;exitDy=0;exitPerimeter=0;entryX=0.5;entryY=0;entryDx=0;entryDy=0;entryPerimeter=0;strokeColor=default;fontSize=14;startArrow=none;startFill=0;endArrow=classic;endFill=1;" edge="1" parent="1" source="Zy5Wt5ni4Z5-jma8tLIB-9" target="Zy5Wt5ni4Z5-jma8tLIB-56">
          <mxGeometry relative="1" as="geometry" />
        </mxCell>
        <object placeholders="1" c4Name="Управление торговлей" c4Type="1С Предприятие" c4Description="Управление взаимоотношениями с клиентами" label="&lt;font style=&quot;font-size: 16px&quot;&gt;&lt;b&gt;%c4Name%&lt;/b&gt;&lt;/font&gt;&lt;div&gt;[%c4Type%]&lt;/div&gt;&lt;br&gt;&lt;div&gt;&lt;font style=&quot;font-size: 11px&quot;&gt;&lt;font color=&quot;#cccccc&quot;&gt;%c4Description%&lt;/font&gt;&lt;/div&gt;" id="Zy5Wt5ni4Z5-jma8tLIB-9">
          <mxCell style="rounded=1;whiteSpace=wrap;html=1;labelBackgroundColor=none;fillColor=#1061B0;fontColor=#ffffff;align=center;arcSize=10;strokeColor=#0D5091;metaEdit=1;resizable=0;points=[[0.25,0,0],[0.5,0,0],[0.75,0,0],[1,0.25,0],[1,0.5,0],[1,0.75,0],[0.75,1,0],[0.5,1,0],[0.25,1,0],[0,0.75,0],[0,0.5,0],[0,0.25,0]];fontSize=14;" vertex="1" parent="1">
            <mxGeometry x="-800" y="390" width="240" height="120" as="geometry" />
          </mxCell>
        </object>
        <mxCell id="Zy5Wt5ni4Z5-jma8tLIB-44" style="edgeStyle=orthogonalEdgeStyle;rounded=0;orthogonalLoop=1;jettySize=auto;html=1;exitX=0;exitY=0.5;exitDx=0;exitDy=0;exitPerimeter=0;strokeColor=default;fontSize=14;" edge="1" parent="1" source="Zy5Wt5ni4Z5-jma8tLIB-10" target="Zy5Wt5ni4Z5-jma8tLIB-9">
          <mxGeometry relative="1" as="geometry">
            <Array as="points">
              <mxPoint x="-430" y="450" />
              <mxPoint x="-430" y="450" />
            </Array>
          </mxGeometry>
        </mxCell>
        <mxCell id="Zy5Wt5ni4Z5-jma8tLIB-45" value="Передача в DMS" style="edgeLabel;html=1;align=center;verticalAlign=middle;resizable=0;points=[];fontSize=14;" vertex="1" connectable="0" parent="Zy5Wt5ni4Z5-jma8tLIB-44">
          <mxGeometry x="0.2308" y="3" relative="1" as="geometry">
            <mxPoint x="25" y="-3" as="offset" />
          </mxGeometry>
        </mxCell>
        <object placeholders="1" c4Name="CDMS" c4Type="1С Предприятие" c4Description="Система централизованного управления НСИ компании " label="&lt;font style=&quot;font-size: 16px&quot;&gt;&lt;b&gt;%c4Name%&lt;/b&gt;&lt;/font&gt;&lt;div&gt;[%c4Type%]&lt;/div&gt;&lt;br&gt;&lt;div&gt;&lt;font style=&quot;font-size: 11px&quot;&gt;&lt;font color=&quot;#cccccc&quot;&gt;%c4Description%&lt;/font&gt;&lt;/div&gt;" id="Zy5Wt5ni4Z5-jma8tLIB-10">
          <mxCell style="rounded=1;whiteSpace=wrap;html=1;labelBackgroundColor=none;fillColor=#1061B0;fontColor=#ffffff;align=center;arcSize=10;strokeColor=#0D5091;metaEdit=1;resizable=0;points=[[0.25,0,0],[0.5,0,0],[0.75,0,0],[1,0.25,0],[1,0.5,0],[1,0.75,0],[0.75,1,0],[0.5,1,0],[0.25,1,0],[0,0.75,0],[0,0.5,0],[0,0.25,0]];fontSize=14;" vertex="1" parent="1">
            <mxGeometry x="-360" y="390" width="240" height="120" as="geometry" />
          </mxCell>
        </object>
        <mxCell id="Zy5Wt5ni4Z5-jma8tLIB-11" value="&lt;b style=&quot;border-color: var(--border-color);&quot;&gt;НСИ&amp;nbsp;&lt;/b&gt;- Нормативно справочная информация" style="text;html=1;align=center;verticalAlign=middle;resizable=0;points=[];autosize=1;strokeColor=none;fillColor=none;fontSize=14;" vertex="1" parent="1">
          <mxGeometry x="-1160" y="120" width="310" height="30" as="geometry" />
        </mxCell>
        <mxCell id="Zy5Wt5ni4Z5-jma8tLIB-12" value="&lt;b&gt;1С:DMS, 1С:CDMS&lt;/b&gt; — программные продукты семейства 1С." style="text;html=1;align=center;verticalAlign=middle;resizable=0;points=[];autosize=1;strokeColor=none;fillColor=none;fontSize=14;" vertex="1" parent="1">
          <mxGeometry x="-1160" y="80" width="420" height="30" as="geometry" />
        </mxCell>
        <mxCell id="Zy5Wt5ni4Z5-jma8tLIB-13" value="Легенда" style="shape=table;startSize=30;container=1;collapsible=0;childLayout=tableLayout;fontSize=16;align=left;verticalAlign=top;fillColor=none;strokeColor=none;fontColor=#4D4D4D;fontStyle=1;spacingLeft=6;spacing=0;resizable=0;" vertex="1" parent="1">
          <mxGeometry x="-1160" y="180" width="180" height="150" as="geometry" />
        </mxCell>
        <mxCell id="Zy5Wt5ni4Z5-jma8tLIB-14" value="" style="shape=tableRow;horizontal=0;startSize=0;swimlaneHead=0;swimlaneBody=0;strokeColor=inherit;top=0;left=0;bottom=0;right=0;collapsible=0;dropTarget=0;fillColor=none;points=[[0,0.5],[1,0.5]];portConstraint=eastwest;fontSize=12;" vertex="1" parent="Zy5Wt5ni4Z5-jma8tLIB-13">
          <mxGeometry y="30" width="180" height="30" as="geometry" />
        </mxCell>
        <mxCell id="Zy5Wt5ni4Z5-jma8tLIB-15" value="Внутренний сотрудник" style="shape=partialRectangle;html=1;whiteSpace=wrap;connectable=0;strokeColor=inherit;overflow=hidden;fillColor=#1E4074;top=0;left=0;bottom=0;right=0;pointerEvents=1;fontSize=12;align=left;fontColor=#FFFFFF;gradientColor=none;spacingLeft=10;spacingRight=4;" vertex="1" parent="Zy5Wt5ni4Z5-jma8tLIB-14">
          <mxGeometry width="180" height="30" as="geometry">
            <mxRectangle width="180" height="30" as="alternateBounds" />
          </mxGeometry>
        </mxCell>
        <mxCell id="Zy5Wt5ni4Z5-jma8tLIB-16" value="" style="shape=tableRow;horizontal=0;startSize=0;swimlaneHead=0;swimlaneBody=0;strokeColor=inherit;top=0;left=0;bottom=0;right=0;collapsible=0;dropTarget=0;fillColor=none;points=[[0,0.5],[1,0.5]];portConstraint=eastwest;fontSize=12;" vertex="1" parent="Zy5Wt5ni4Z5-jma8tLIB-13">
          <mxGeometry y="60" width="180" height="30" as="geometry" />
        </mxCell>
        <mxCell id="Zy5Wt5ni4Z5-jma8tLIB-17" value="Программный продукт" style="shape=partialRectangle;html=1;whiteSpace=wrap;connectable=0;strokeColor=inherit;overflow=hidden;fillColor=#3162AF;top=0;left=0;bottom=0;right=0;pointerEvents=1;fontSize=12;align=left;fontColor=#FFFFFF;gradientColor=none;spacingLeft=10;spacingRight=4;" vertex="1" parent="Zy5Wt5ni4Z5-jma8tLIB-16">
          <mxGeometry width="180" height="30" as="geometry">
            <mxRectangle width="180" height="30" as="alternateBounds" />
          </mxGeometry>
        </mxCell>
        <mxCell id="Zy5Wt5ni4Z5-jma8tLIB-18" value="" style="shape=tableRow;horizontal=0;startSize=0;swimlaneHead=0;swimlaneBody=0;strokeColor=inherit;top=0;left=0;bottom=0;right=0;collapsible=0;dropTarget=0;fillColor=none;points=[[0,0.5],[1,0.5]];portConstraint=eastwest;fontSize=12;" vertex="1" parent="Zy5Wt5ni4Z5-jma8tLIB-13">
          <mxGeometry y="90" width="180" height="30" as="geometry" />
        </mxCell>
        <mxCell id="Zy5Wt5ni4Z5-jma8tLIB-19" value="Контейнер данных" style="shape=partialRectangle;html=1;whiteSpace=wrap;connectable=0;strokeColor=inherit;overflow=hidden;fillColor=#52a2d8;top=0;left=0;bottom=0;right=0;pointerEvents=1;fontSize=12;align=left;fontColor=#FFFFFF;gradientColor=none;spacingLeft=10;spacingRight=4;" vertex="1" parent="Zy5Wt5ni4Z5-jma8tLIB-18">
          <mxGeometry width="180" height="30" as="geometry">
            <mxRectangle width="180" height="30" as="alternateBounds" />
          </mxGeometry>
        </mxCell>
        <mxCell id="Zy5Wt5ni4Z5-jma8tLIB-24" value="" style="shape=tableRow;horizontal=0;startSize=0;swimlaneHead=0;swimlaneBody=0;strokeColor=inherit;top=0;left=0;bottom=0;right=0;collapsible=0;dropTarget=0;fillColor=none;points=[[0,0.5],[1,0.5]];portConstraint=eastwest;fontSize=12;" vertex="1" parent="Zy5Wt5ni4Z5-jma8tLIB-13">
          <mxGeometry y="120" width="180" height="30" as="geometry" />
        </mxCell>
        <mxCell id="Zy5Wt5ni4Z5-jma8tLIB-25" value="Система дистрибьютора" style="shape=partialRectangle;html=1;whiteSpace=wrap;connectable=0;strokeColor=inherit;overflow=hidden;fillColor=#8b8496;top=0;left=0;bottom=0;right=0;pointerEvents=1;fontSize=12;align=left;fontColor=#FFFFFF;gradientColor=none;spacingLeft=10;spacingRight=4;" vertex="1" parent="Zy5Wt5ni4Z5-jma8tLIB-24">
          <mxGeometry width="180" height="30" as="geometry">
            <mxRectangle width="180" height="30" as="alternateBounds" />
          </mxGeometry>
        </mxCell>
        <mxCell id="Zy5Wt5ni4Z5-jma8tLIB-55" style="edgeStyle=orthogonalEdgeStyle;rounded=0;orthogonalLoop=1;jettySize=auto;html=1;exitX=0.5;exitY=0;exitDx=0;exitDy=0;exitPerimeter=0;entryX=0.5;entryY=1;entryDx=0;entryDy=0;entryPerimeter=0;strokeColor=default;fontSize=14;startArrow=none;startFill=0;endArrow=classic;endFill=1;" edge="1" parent="1" source="Zy5Wt5ni4Z5-jma8tLIB-50" target="Zy5Wt5ni4Z5-jma8tLIB-8">
          <mxGeometry relative="1" as="geometry" />
        </mxCell>
        <object placeholders="1" c4Name="Клиент" c4Type="Человек" c4Description="Обращение на порталах" label="&lt;font style=&quot;font-size: 16px&quot;&gt;&lt;b&gt;%c4Name%&lt;/b&gt;&lt;/font&gt;&lt;div&gt;[%c4Type%]&lt;/div&gt;&lt;br&gt;&lt;div&gt;&lt;font style=&quot;font-size: 11px&quot;&gt;&lt;font color=&quot;#cccccc&quot;&gt;%c4Description%&lt;/font&gt;&lt;/div&gt;" id="Zy5Wt5ni4Z5-jma8tLIB-50">
          <mxCell style="html=1;fontSize=11;dashed=0;whiteSpace=wrap;fillColor=#6C6477;strokeColor=#4D4D4D;fontColor=#ffffff;shape=mxgraph.c4.person2;align=center;metaEdit=1;points=[[0.5,0,0],[1,0.5,0],[1,0.75,0],[0.75,1,0],[0.5,1,0],[0.25,1,0],[0,0.75,0],[0,0.5,0]];resizable=0;" vertex="1" parent="1">
            <mxGeometry x="-490" y="1070" width="200" height="180" as="geometry" />
          </mxCell>
        </object>
        <mxCell id="Zy5Wt5ni4Z5-jma8tLIB-53" style="edgeStyle=orthogonalEdgeStyle;rounded=0;orthogonalLoop=1;jettySize=auto;html=1;exitX=1;exitY=0.5;exitDx=0;exitDy=0;exitPerimeter=0;entryX=0;entryY=0.25;entryDx=0;entryDy=0;entryPerimeter=0;strokeColor=default;fontSize=14;startArrow=none;startFill=0;endArrow=classic;endFill=1;" edge="1" parent="1" source="Zy5Wt5ni4Z5-jma8tLIB-51" target="Zy5Wt5ni4Z5-jma8tLIB-8">
          <mxGeometry relative="1" as="geometry" />
        </mxCell>
        <object placeholders="1" c4Type="Kafka" c4Container="Container" c4Technology="Apache Kafka" c4Description="Маршрутизация&#xa;сообщений между&#xa;различными системамиcontainer role/responsibility." label="&lt;font style=&quot;font-size: 16px&quot;&gt;&lt;b&gt;%c4Type%&lt;/b&gt;&lt;/font&gt;&lt;div&gt;[%c4Container%:&amp;nbsp;%c4Technology%]&lt;/div&gt;&lt;br&gt;&lt;div&gt;&lt;font style=&quot;font-size: 11px&quot;&gt;&lt;font color=&quot;#E6E6E6&quot;&gt;%c4Description%&lt;/font&gt;&lt;/div&gt;" id="Zy5Wt5ni4Z5-jma8tLIB-51">
          <mxCell style="shape=cylinder3;size=15;direction=south;whiteSpace=wrap;html=1;boundedLbl=1;rounded=0;labelBackgroundColor=none;fillColor=#23A2D9;fontSize=12;fontColor=#ffffff;align=center;strokeColor=#0E7DAD;metaEdit=1;points=[[0.5,0,0],[1,0.25,0],[1,0.5,0],[1,0.75,0],[0.5,1,0],[0,0.75,0],[0,0.5,0],[0,0.25,0]];resizable=0;" vertex="1" parent="1">
            <mxGeometry x="-810" y="570" width="240" height="120" as="geometry" />
          </mxCell>
        </object>
        <mxCell id="Zy5Wt5ni4Z5-jma8tLIB-58" style="edgeStyle=orthogonalEdgeStyle;rounded=0;orthogonalLoop=1;jettySize=auto;html=1;exitX=1;exitY=0.5;exitDx=0;exitDy=0;exitPerimeter=0;entryX=0.5;entryY=1;entryDx=0;entryDy=0;entryPerimeter=0;strokeColor=default;fontSize=14;startArrow=none;startFill=0;endArrow=classic;endFill=1;" edge="1" parent="1" source="Zy5Wt5ni4Z5-jma8tLIB-56" target="Zy5Wt5ni4Z5-jma8tLIB-51">
          <mxGeometry relative="1" as="geometry" />
        </mxCell>
        <mxCell id="Zy5Wt5ni4Z5-jma8tLIB-65" style="edgeStyle=orthogonalEdgeStyle;rounded=0;orthogonalLoop=1;jettySize=auto;html=1;exitX=0.5;exitY=1;exitDx=0;exitDy=0;exitPerimeter=0;entryX=0;entryY=0.5;entryDx=0;entryDy=0;entryPerimeter=0;strokeColor=default;fontSize=14;startArrow=none;startFill=0;endArrow=classic;endFill=1;" edge="1" parent="1" source="Zy5Wt5ni4Z5-jma8tLIB-56" target="Zy5Wt5ni4Z5-jma8tLIB-8">
          <mxGeometry relative="1" as="geometry" />
        </mxCell>
        <mxCell id="Zy5Wt5ni4Z5-jma8tLIB-67" style="edgeStyle=orthogonalEdgeStyle;rounded=0;orthogonalLoop=1;jettySize=auto;html=1;exitX=1;exitY=0.75;exitDx=0;exitDy=0;exitPerimeter=0;strokeColor=default;fontSize=14;startArrow=none;startFill=0;endArrow=classic;endFill=1;" edge="1" parent="1" source="Zy5Wt5ni4Z5-jma8tLIB-56" target="Zy5Wt5ni4Z5-jma8tLIB-66">
          <mxGeometry relative="1" as="geometry" />
        </mxCell>
        <object placeholders="1" c4Type="Хранилище DWH" c4Container="Контейнер: Ms SQL Database Schema" c4Technology="" c4Description="Содержит информацию о:&#xa;• НСИ Компании;&#xa;• Данных по оперативному учету" label="&lt;font style=&quot;font-size: 16px&quot;&gt;&lt;b&gt;%c4Type%&lt;/b&gt;&lt;/font&gt;&lt;div&gt;[%c4Container%:&amp;nbsp;%c4Technology%]&lt;/div&gt;&lt;br&gt;&lt;div&gt;&lt;font style=&quot;font-size: 11px&quot;&gt;&lt;font color=&quot;#E6E6E6&quot;&gt;%c4Description%&lt;/font&gt;&lt;/div&gt;" id="Zy5Wt5ni4Z5-jma8tLIB-56">
          <mxCell style="shape=cylinder3;size=18;whiteSpace=wrap;html=1;boundedLbl=1;rounded=0;labelBackgroundColor=none;fillColor=#23A2D9;fontSize=12;fontColor=#ffffff;align=center;strokeColor=#0E7DAD;metaEdit=1;points=[[0.5,0,0],[1,0.25,0],[1,0.5,0],[1,0.75,0],[0.5,1,0],[0,0.75,0],[0,0.5,0],[0,0.25,0]];resizable=0;" vertex="1" parent="1">
            <mxGeometry x="-1130" y="570" width="240" height="120" as="geometry" />
          </mxCell>
        </object>
        <object placeholders="1" c4Name="Информационные системы &#xa;КЛЮЧАВТО" c4Type="ContainerScopeBoundary" c4Application="Программная система" label="&lt;font style=&quot;font-size: 16px&quot;&gt;&lt;b&gt;&lt;div style=&quot;text-align: left&quot;&gt;%c4Name%&lt;/div&gt;&lt;/b&gt;&lt;/font&gt;&lt;div style=&quot;text-align: left&quot;&gt;[%c4Application%]&lt;/div&gt;" id="Zy5Wt5ni4Z5-jma8tLIB-63">
          <mxCell style="rounded=1;fontSize=11;whiteSpace=wrap;html=1;dashed=1;arcSize=20;fillColor=none;strokeColor=#666666;fontColor=#333333;labelBackgroundColor=none;align=left;verticalAlign=bottom;labelBorderColor=none;spacingTop=0;spacing=10;dashPattern=8 4;metaEdit=1;rotatable=0;perimeter=rectanglePerimeter;noLabel=0;labelPadding=0;allowArrows=0;connectable=0;expand=0;recursiveResize=0;editable=1;pointerEvents=0;absoluteArcSize=1;points=[[0.25,0,0],[0.5,0,0],[0.75,0,0],[1,0.25,0],[1,0.5,0],[1,0.75,0],[0.75,1,0],[0.5,1,0],[0.25,1,0],[0,0.75,0],[0,0.5,0],[0,0.25,0]];" vertex="1" parent="1">
            <mxGeometry x="-1140" y="370" width="1080" height="540" as="geometry" />
          </mxCell>
        </object>
        <mxCell id="Zy5Wt5ni4Z5-jma8tLIB-68" style="edgeStyle=orthogonalEdgeStyle;rounded=0;orthogonalLoop=1;jettySize=auto;html=1;exitX=0.5;exitY=1;exitDx=0;exitDy=0;exitPerimeter=0;entryX=0;entryY=0.75;entryDx=0;entryDy=0;entryPerimeter=0;strokeColor=default;fontSize=14;startArrow=none;startFill=0;endArrow=classic;endFill=1;" edge="1" parent="1" source="Zy5Wt5ni4Z5-jma8tLIB-66" target="Zy5Wt5ni4Z5-jma8tLIB-8">
          <mxGeometry relative="1" as="geometry" />
        </mxCell>
        <object placeholders="1" c4Name="Микросервис" c4Technology="Приложение API" c4Description="" label="&lt;font style=&quot;font-size: 16px&quot;&gt;&lt;b&gt;%c4Name%&lt;/b&gt;&lt;/font&gt;&lt;div&gt;[%c4Type%: %c4Technology%]&lt;/div&gt;&lt;br&gt;&lt;div&gt;&lt;font style=&quot;font-size: 11px&quot;&gt;&lt;font color=&quot;#E6E6E6&quot;&gt;%c4Description%&lt;/font&gt;&lt;/div&gt;" id="Zy5Wt5ni4Z5-jma8tLIB-66">
          <mxCell style="rounded=1;whiteSpace=wrap;html=1;fontSize=11;labelBackgroundColor=none;fillColor=#23A2D9;fontColor=#ffffff;align=center;arcSize=10;strokeColor=#0E7DAD;metaEdit=1;resizable=0;points=[[0.25,0,0],[0.5,0,0],[0.75,0,0],[1,0.25,0],[1,0.5,0],[1,0.75,0],[0.75,1,0],[0.5,1,0],[0.25,1,0],[0,0.75,0],[0,0.5,0],[0,0.25,0]];" vertex="1" parent="1">
            <mxGeometry x="-960" y="720" width="240" height="120" as="geometry" />
          </mxCell>
        </object>
      </root>
    </mxGraphModel>
  </diagram>
</mxfile>
